<svg width="60" height="60" viewBox="0 0 300 300" fill="none" xmlns="http://www.w3.org/2000/svg">
<g clip-path="url(#clip0_5_1756)">
<path d="M220.979 79.0208C220.784 79.2163 220.467 79.216 220.271 79.0211C202.237 61.1037 177.445 50 150 50C94.75 50 50.125 94.75 50.125 150C50.125 205.25 94.75 250 150 250C196.337 250 235.185 218.433 246.462 175.625C246.546 175.309 246.307 175 245.981 175H220.978C220.767 175 220.578 175.134 220.506 175.333C210.101 204.284 182.563 225 150 225C108.562 225 75 191.438 75 150C75 108.563 108.562 75 150 75C170.508 75 188.927 83.4758 202.458 96.8351C202.654 97.0291 202.654 97.3458 202.459 97.5411L163.354 136.646C163.039 136.961 163.262 137.5 163.707 137.5H249.5C249.776 137.5 250 137.276 250 137V51.2071C250 50.7617 249.461 50.5386 249.146 50.8536L220.979 79.0208Z" fill="black"/>
</g>
<defs>
<clipPath id="clip0_5_1756">
<rect width="300" height="300" fill="white"/>
</clipPath>
</defs>
</svg>
